<svg width="24" height="24" viewBox="0 0 24 24" fill="none" xmlns="http://www.w3.org/2000/svg">
<path d="M2.5 6.5H5.67L7.5 4.5H13.5V6.5H8.38L6.55 8.5H2.5V20.5H18.5V11.5H20.5V20.5C20.5 21.6 19.6 22.5 18.5 22.5H2.5C1.4 22.5 0.5 21.6 0.5 20.5V8.5C0.5 7.4 1.4 6.5 2.5 6.5ZM15.5 14.5C15.5 17.26 13.26 19.5 10.5 19.5C7.74 19.5 5.5 17.26 5.5 14.5C5.5 11.74 7.74 9.5 10.5 9.5C13.26 9.5 15.5 11.74 15.5 14.5ZM10.5 11.5C8.85 11.5 7.5 12.85 7.5 14.5C7.5 16.15 8.85 17.5 10.5 17.5C12.15 17.5 13.5 16.15 13.5 14.5C13.5 12.85 12.15 11.5 10.5 11.5ZM18.5 6.5H15.5V4.5H18.5V1.5H20.5V4.5H23.5V6.5H20.5V9.5H18.5V6.5Z" fill="#3272A8"/>
</svg>
