<svg width="25" height="25" viewBox="0 0 25 25" fill="none" xmlns="http://www.w3.org/2000/svg">
<path d="M19.3333 3.5H18.3333V1.5H16.3333V3.5H8.33325V1.5H6.33325V3.5H5.33325C4.22325 3.5 3.33325 4.4 3.33325 5.5V19.5C3.33325 20.6 4.22325 21.5 5.33325 21.5H19.3333C20.4333 21.5 21.3333 20.6 21.3333 19.5V5.5C21.3333 4.4 20.4333 3.5 19.3333 3.5ZM12.3333 6.5C13.9933 6.5 15.3333 7.84 15.3333 9.5C15.3333 11.16 13.9933 12.5 12.3333 12.5C10.6733 12.5 9.33325 11.16 9.33325 9.5C9.33325 7.84 10.6733 6.5 12.3333 6.5ZM18.3333 18.5H6.33325V17.5C6.33325 15.5 10.3333 14.4 12.3333 14.4C14.3333 14.4 18.3333 15.5 18.3333 17.5V18.5Z" fill="#757575"/>
</svg>
