<svg width="28" height="28" viewBox="0 0 28 28" fill="none" xmlns="http://www.w3.org/2000/svg">
<path d="M22.1667 4.66665H17.29C16.8 3.31331 15.5167 2.33331 14 2.33331C12.4833 2.33331 11.2 3.31331 10.71 4.66665H5.83333C4.55 4.66665 3.5 5.71665 3.5 6.99998V23.3333C3.5 24.6166 4.55 25.6666 5.83333 25.6666H22.1667C23.45 25.6666 24.5 24.6166 24.5 23.3333V6.99998C24.5 5.71665 23.45 4.66665 22.1667 4.66665ZM14 4.66665C14.6417 4.66665 15.1667 5.19165 15.1667 5.83331C15.1667 6.47498 14.6417 6.99998 14 6.99998C13.3583 6.99998 12.8333 6.47498 12.8333 5.83331C12.8333 5.19165 13.3583 4.66665 14 4.66665ZM16.3333 21H8.16667V18.6666H16.3333V21ZM19.8333 16.3333H8.16667V14H19.8333V16.3333ZM19.8333 11.6666H8.16667V9.33331H19.8333V11.6666Z" fill="#8FB9D6"/>
</svg>
