<svg width="25" height="25" viewBox="0 0 25 25" fill="none" xmlns="http://www.w3.org/2000/svg">
<path d="M20.6667 6.5H12.6667L10.6667 4.5H4.66675C3.56675 4.5 2.67675 5.4 2.67675 6.5L2.66675 18.5C2.66675 19.6 3.56675 20.5 4.66675 20.5H20.6667C21.7667 20.5 22.6667 19.6 22.6667 18.5V8.5C22.6667 7.4 21.7667 6.5 20.6667 6.5ZM15.6667 9.5C16.7667 9.5 17.6667 10.4 17.6667 11.5C17.6667 12.6 16.7667 13.5 15.6667 13.5C14.5667 13.5 13.6667 12.6 13.6667 11.5C13.6667 10.4 14.5667 9.5 15.6667 9.5ZM19.6667 17.5H11.6667V16.5C11.6667 15.17 14.3367 14.5 15.6667 14.5C16.9967 14.5 19.6667 15.17 19.6667 16.5V17.5Z" fill="#0B72B2"/>
</svg>
