<svg width="28" height="28" viewBox="0 0 28 28" fill="none" xmlns="http://www.w3.org/2000/svg">
<path d="M7.58342 10.5C7.58342 6.95334 10.4534 4.08334 14.0001 4.08334C17.5467 4.08334 20.4167 6.95334 20.4167 10.5C20.4167 13.65 18.1534 16.2517 15.1667 16.8V19.25H17.5001V21.5833H15.1667V23.9167H12.8334V21.5833H10.5001V19.25H12.8334V16.8C9.84675 16.2517 7.58342 13.65 7.58342 10.5ZM18.0834 10.5C18.0834 8.24834 16.2517 6.41667 14.0001 6.41667C11.7484 6.41667 9.91675 8.24834 9.91675 10.5C9.91675 12.7517 11.7484 14.5833 14.0001 14.5833C16.2517 14.5833 18.0834 12.7517 18.0834 10.5Z" fill="#8FB9D6"/>
</svg>
