<svg width="28" height="28" viewBox="0 0 28 28" fill="none" xmlns="http://www.w3.org/2000/svg">
<path d="M21 9.91667H19.8334V7.58333C19.8334 4.36333 17.22 1.75 14 1.75C10.78 1.75 8.16669 4.36333 8.16669 7.58333V9.91667H7.00002C5.71669 9.91667 4.66669 10.9667 4.66669 12.25V23.9167C4.66669 25.2 5.71669 26.25 7.00002 26.25H21C22.2834 26.25 23.3334 25.2 23.3334 23.9167V12.25C23.3334 10.9667 22.2834 9.91667 21 9.91667ZM14 20.4167C12.7167 20.4167 11.6667 19.3667 11.6667 18.0833C11.6667 16.8 12.7167 15.75 14 15.75C15.2834 15.75 16.3334 16.8 16.3334 18.0833C16.3334 19.3667 15.2834 20.4167 14 20.4167ZM17.6167 9.91667H10.3834V7.58333C10.3834 5.58833 12.005 3.96667 14 3.96667C15.995 3.96667 17.6167 5.58833 17.6167 7.58333V9.91667Z" fill="#8FB9D6"/>
</svg>
