<svg width="30" height="30" viewBox="0 0 30 30" fill="none" xmlns="http://www.w3.org/2000/svg">
<path d="M20.625 15C22.35 15 23.7375 13.6 23.7375 11.875C23.7375 10.15 22.35 8.75 20.625 8.75C18.9 8.75 17.5 10.15 17.5 11.875C17.5 13.6 18.9 15 20.625 15ZM11.25 13.75C13.325 13.75 14.9875 12.075 14.9875 10C14.9875 7.925 13.325 6.25 11.25 6.25C9.175 6.25 7.5 7.925 7.5 10C7.5 12.075 9.175 13.75 11.25 13.75ZM20.625 17.5C18.3375 17.5 13.75 18.65 13.75 20.9375V22.5C13.75 23.1875 14.3125 23.75 15 23.75H26.25C26.9375 23.75 27.5 23.1875 27.5 22.5V20.9375C27.5 18.65 22.9125 17.5 20.625 17.5ZM11.25 16.25C8.3375 16.25 2.5 17.7125 2.5 20.625V22.5C2.5 23.1875 3.0625 23.75 3.75 23.75H11.25V20.9375C11.25 19.875 11.6625 18.0125 14.2125 16.6C13.125 16.375 12.075 16.25 11.25 16.25Z" fill="white"/>
</svg>
