<svg width="28" height="28" viewBox="0 0 28 28" fill="none" xmlns="http://www.w3.org/2000/svg">
<path d="M22.1667 4.66668H17.29C16.8 3.31334 15.5167 2.33334 14 2.33334C12.4833 2.33334 11.2 3.31334 10.71 4.66668H5.83333C4.55 4.66668 3.5 5.71668 3.5 7.00001V23.3333C3.5 24.6167 4.55 25.6667 5.83333 25.6667H22.1667C23.45 25.6667 24.5 24.6167 24.5 23.3333V7.00001C24.5 5.71668 23.45 4.66668 22.1667 4.66668ZM14 4.66668C14.6417 4.66668 15.1667 5.19168 15.1667 5.83334C15.1667 6.47501 14.6417 7.00001 14 7.00001C13.3583 7.00001 12.8333 6.47501 12.8333 5.83334C12.8333 5.19168 13.3583 4.66668 14 4.66668ZM16.3333 21H8.16667V18.6667H16.3333V21ZM19.8333 16.3333H8.16667V14H19.8333V16.3333ZM19.8333 11.6667H8.16667V9.33334H19.8333V11.6667Z" fill="#8FB9D6"/>
</svg>
