<svg width="28" height="28" viewBox="0 0 28 28" fill="none" xmlns="http://www.w3.org/2000/svg">
<path d="M7.29748 14L2.65415 9.35667C2.19915 8.90167 2.19915 8.16667 2.65415 7.71167L7.71748 2.64833C8.17248 2.19333 8.90748 2.19333 9.36248 2.64833L14.0058 7.29167L18.6491 2.64833C18.8825 2.42667 19.1741 2.31 19.4775 2.31C19.7691 2.31 20.0725 2.42667 20.2941 2.64833L25.3575 7.71167C25.8125 8.16667 25.8125 8.90167 25.3575 9.35667L20.7141 14L25.3575 18.6433C25.8125 19.0983 25.8125 19.8333 25.3575 20.2883L20.2941 25.3517C19.8391 25.8067 19.1041 25.8067 18.6491 25.3517L14.0058 20.7083L9.36248 25.3517C9.12915 25.585 8.83748 25.69 8.53415 25.69C8.23081 25.69 7.93915 25.5733 7.70581 25.3517L2.64248 20.2883C2.18748 19.8333 2.18748 19.0983 2.64248 18.6433L7.29748 14ZM13.9825 10.4767C13.3408 10.4767 12.8158 11.0017 12.8158 11.6433C12.8158 12.285 13.3408 12.81 13.9825 12.81C14.6241 12.81 15.1491 12.285 15.1491 11.6433C15.1491 11.0017 14.6241 10.4767 13.9825 10.4767ZM19.4775 12.7633L23.7125 8.54L19.4775 4.305L15.2541 8.52833L19.4775 12.7633ZM16.3158 15.1433C16.9575 15.1433 17.4825 14.6183 17.4825 13.9767C17.4825 13.335 16.9575 12.81 16.3158 12.81C15.6741 12.81 15.1491 13.335 15.1491 13.9767C15.1491 14.6183 15.6741 15.1433 16.3158 15.1433ZM13.9825 17.4767C14.6241 17.4767 15.1491 16.9517 15.1491 16.31C15.1491 15.6683 14.6241 15.1433 13.9825 15.1433C13.3408 15.1433 12.8158 15.6683 12.8158 16.31C12.8158 16.9517 13.3408 17.4767 13.9825 17.4767ZM11.6491 12.81C11.0075 12.81 10.4825 13.335 10.4825 13.9767C10.4825 14.6183 11.0075 15.1433 11.6491 15.1433C12.2908 15.1433 12.8158 14.6183 12.8158 13.9767C12.8158 13.335 12.2908 12.81 11.6491 12.81ZM8.54581 23.7067L12.7808 19.4833L8.54581 15.2483L4.32248 19.4717L8.54581 23.7067Z" fill="#8FB9D6"/>
</svg>
