<svg width="28" height="28" viewBox="0 0 28 28" fill="none" xmlns="http://www.w3.org/2000/svg">
<path d="M14 8.16665C10.78 8.16665 8.16671 10.78 8.16671 14C8.16671 17.22 10.78 19.8333 14 19.8333C17.22 19.8333 19.8334 17.22 19.8334 14C19.8334 10.78 17.22 8.16665 14 8.16665ZM14 2.33331C7.56004 2.33331 2.33337 7.55998 2.33337 14C2.33337 20.44 7.56004 25.6666 14 25.6666C20.44 25.6666 25.6667 20.44 25.6667 14C25.6667 7.55998 20.44 2.33331 14 2.33331ZM14 23.3333C8.84337 23.3333 4.66671 19.1566 4.66671 14C4.66671 8.84331 8.84337 4.66665 14 4.66665C19.1567 4.66665 23.3334 8.84331 23.3334 14C23.3334 19.1566 19.1567 23.3333 14 23.3333Z" fill="#3272A8"/>
</svg>
